# Blender v3.0.1 OBJ File: ''
# www.blender.org
mtllib map.mtl
o obj_0
v -46.031715 41.216003 -32.129642
v -46.031715 166.113647 -32.129642
v -46.031715 41.216003 -34.183636
v -46.031715 166.113647 -34.183636
v 5.802099 -21.232504 -44.175697
v -6.687976 -21.232504 -44.175697
v -6.687976 -21.232504 -56.665771
v 5.802099 -21.232504 -56.665771
v 19.541183 -21.232504 25.858656
v -27.357178 -21.232504 25.114248
v 11.985312 -21.232504 18.244081
v 18.885456 -21.232504 -55.417389
v 11.392033 -21.232504 -55.356812
v -19.209278 -21.232504 -56.605820
v -19.803804 -21.232504 17.739485
v -26.702698 -21.232504 -56.665771
v -6.687976 -21.232504 -31.061115
v 5.802099 -21.232504 -31.061115
v -6.687976 -21.232504 -18.571041
v 5.802099 -21.232504 -18.571041
v 5.802099 -21.232504 7.033617
v -6.687976 -21.232504 7.033617
v -6.687976 -21.232504 -5.456459
v 5.802099 -21.232504 -5.456459
v 9.275589 166.113647 -34.183636
v 9.275589 166.113647 -32.129642
v 9.275589 41.216003 -32.129642
v -19.404997 41.216003 -32.129642
v -26.702698 26.228537 -56.665771
v -26.047594 26.228537 -56.660522
v 18.885456 41.216003 -55.417389
v 11.985312 41.216003 18.244081
v 19.541183 41.216003 25.858656
v -26.899042 41.216003 -32.129642
v -26.882618 41.216003 -34.183636
v -19.209278 41.216003 -56.605820
v -26.702698 41.216003 -56.665771
v -19.388573 41.216003 -34.183636
v -38.537670 38.717987 -63.535309
v -38.537670 26.228537 -63.535309
v -38.537670 26.228537 -51.045235
v -38.537670 38.717987 -51.045235
v -26.747662 38.717987 -51.045235
v -26.702698 38.717987 -56.665771
v -26.047594 26.228537 -63.535309
v -26.747662 26.228537 -51.045235
v -26.047594 38.717987 -63.535309
v -26.047594 38.717987 -56.660522
v -27.357178 41.216003 25.114248
v -19.803804 41.216003 17.739485
v 5.802099 -8.743052 -18.571041
v 5.802099 -8.743052 -5.456459
v 5.802099 -8.743052 7.033617
v -6.687976 -8.743052 -18.571041
v -6.687976 -8.743052 -5.456459
v -6.687976 -8.743052 7.033617
v 9.275589 41.216003 -34.183636
v 4.207743 43.714020 -55.148224
v 4.207743 43.714020 -42.658150
v 4.207743 31.224566 -42.658150
v -8.282334 43.714020 -42.658150
v -8.282334 43.714020 -55.148224
v -8.282334 31.224566 -55.148224
v 11.392033 41.216003 -55.356812
v 4.207743 31.224566 -55.148224
v -8.282334 31.224566 -42.658150
v 3.928589 9.367558 -74.151878
v -8.561487 -3.122519 -74.151878
v -8.561487 9.367558 -74.151878
v 3.928589 -3.122519 -74.151878
v 3.928589 9.367558 -61.661804
v -8.561487 9.367558 -61.661804
v -8.561487 -3.122519 -61.661804
v 5.802099 -8.743052 -56.665771
v 5.802099 -8.743052 -44.175697
v 5.802099 -8.743052 -31.061115
v 3.928589 -3.122519 -61.661804
v -6.687976 -8.743052 -56.665771
v -6.687976 -8.743052 -44.175697
v -6.687976 -8.743052 -31.061115
vn -0.5773 -0.5773 0.5773
vn -0.5773 0.5773 0.5773
vn -0.5773 -0.5773 -0.5773
vn -0.5773 0.5773 -0.5773
vn 0.5773 -0.5773 0.5773
vn 0.5773 -0.5773 -0.5773
vn 0.5757 -0.5761 0.5802
vn -0.5840 -0.5777 0.5702
vn -0.2961 -0.9073 -0.2984
vn 0.5726 -0.5773 -0.5820
vn -0.5820 -0.5773 -0.5726
vn 0.5819 -0.5773 -0.5727
vn 0.3065 -0.9036 -0.2992
vn -0.5727 -0.5773 -0.5819
vn 0.5773 0.5773 -0.5773
vn 0.5773 0.5773 0.5773
vn 0.7042 0.0000 0.7099
vn -0.2991 -0.9045 -0.3039
vn 0.3082 -0.2994 -0.9030
vn 0.5726 0.5773 -0.5820
vn -0.2961 0.9073 -0.2984
vn 0.5757 0.5761 0.5802
vn -0.7099 0.0000 0.7042
vn -0.7042 0.0000 -0.7099
vn 0.5819 0.5773 -0.5727
vn -0.5727 0.5773 -0.5819
vn 0.7099 0.0000 -0.7042
vn -0.9061 0.3035 0.2948
vn -0.2991 0.9045 -0.3039
vn -0.9060 -0.3036 0.2948
vn 0.3082 0.2994 -0.9030
vn -0.5840 0.5777 0.5702
vn 0.3065 0.9036 -0.2992
vn -0.5820 0.5773 -0.5726
usemtl color_11909273
s 1
f 1//1 2//2 3//3
f 4//4 3//3 2//2
f 5//5 6//1 7//3
f 5//5 7//3 8//6
f 9//7 10//8 11//9
f 12//10 9//7 11//9
f 12//10 11//9 13//11
f 14//12 15//13 16//14
f 16//14 15//13 10//8
f 15//13 11//9 10//8
f 17//3 18//6 19//1
f 20//5 19//1 18//6
f 21//5 22//1 23//3
f 21//5 23//3 24//6
f 25//15 4//4 2//2
f 25//15 2//2 26//16
f 26//16 27//5 25//15
f 2//2 28//17 26//16
f 29//18 30//19 16//14
f 30//19 14//12 16//14
f 31//20 32//21 33//22
f 2//2 1//1 34//23
f 28//17 2//2 34//23
f 27//5 26//16 28//17
f 4//4 35//24 3//3
f 35//24 34//23 3//3
f 1//1 3//3 34//23
f 36//25 37//26 38//27
f 38//27 37//26 35//24
f 39//4 40//3 41//1
f 39//4 41//1 42//2
f 43//28 44//29 42//2
f 39//4 42//2 44//29
f 40//3 45//6 29//18
f 46//30 41//1 29//18
f 40//3 29//18 41//1
f 42//2 41//1 46//30
f 42//2 46//30 43//28
f 39//4 45//6 40//3
f 37//26 44//29 43//28
f 43//28 46//30 35//24
f 46//30 10//8 35//24
f 37//26 43//28 35//24
f 29//18 16//14 46//30
f 34//23 35//24 10//8
f 36//25 38//27 14//12
f 38//27 28//17 14//12
f 30//19 45//6 47//15
f 30//19 47//15 48//31
f 48//31 47//15 44//29
f 39//4 44//29 47//15
f 30//19 29//18 45//6
f 47//15 45//6 39//4
f 48//31 36//25 30//19
f 37//26 36//25 48//31
f 14//12 30//19 36//25
f 37//26 48//31 44//29
f 33//22 32//21 49//32
f 49//32 50//33 34//23
f 28//17 34//23 50//33
f 32//21 50//33 49//32
f 50//33 15//13 28//17
f 9//7 12//10 33//22
f 11//9 32//21 13//11
f 51//16 20//5 18//6
f 24//6 52//15 53//16
f 24//6 53//16 21//5
f 16//14 10//8 46//30
f 49//32 34//23 10//8
f 14//12 28//17 15//13
f 17//3 19//1 54//2
f 55//4 23//3 22//1
f 55//4 22//1 56//2
f 9//7 33//22 49//32
f 32//21 11//9 50//33
f 52//15 55//4 56//2
f 52//15 56//2 53//16
f 10//8 9//7 49//32
f 15//13 50//33 11//9
f 56//2 22//1 21//5
f 56//2 21//5 53//16
f 54//2 19//1 20//5
f 54//2 20//5 51//16
f 24//6 23//3 55//4
f 24//6 55//4 52//15
f 57//6 25//15 27//5
f 58//15 59//16 60//5
f 61//2 62//4 63//3
f 58//15 62//4 61//2
f 58//15 61//2 59//16
f 60//5 59//16 61//2
f 58//15 63//3 62//4
f 57//6 38//27 25//15
f 35//24 4//4 38//27
f 4//4 25//15 38//27
f 27//5 28//17 38//27
f 38//27 57//6 27//5
f 32//21 31//20 64//34
f 12//10 64//34 31//20
f 60//5 65//6 58//15
f 63//3 66//1 61//2
f 60//5 66//1 63//3
f 60//5 63//3 65//6
f 60//5 61//2 66//1
f 63//3 58//15 65//6
f 67//15 68//3 69//4
f 68//3 67//15 70//6
f 31//20 33//22 12//10
f 67//15 71//16 70//6
f 72//2 71//16 69//4
f 67//15 69//4 71//16
f 72//2 73//1 71//16
f 13//11 32//21 64//34
f 64//34 12//10 13//11
f 74//15 75//16 5//5
f 74//15 5//5 8//6
f 51//16 18//6 76//15
f 68//3 73//1 72//2
f 72//2 69//4 68//3
f 70//6 77//5 68//3
f 73//1 68//3 77//5
f 77//5 71//16 73//1
f 78//4 7//3 6//1
f 78//4 6//1 79//2
f 80//4 17//3 54//2
f 71//16 77//5 70//6
f 79//2 75//16 74//15
f 79//2 74//15 78//4
f 80//4 54//2 76//15
f 51//16 76//15 54//2
f 79//2 6//1 5//5
f 75//16 79//2 5//5
f 78//4 74//15 7//3
f 8//6 7//3 74//15
f 80//4 76//15 17//3
f 18//6 17//3 76//15
o Cube_Cube.001
v -23.831738 -0.088935 -60.167141
v -23.831738 13.747470 -60.167141
v -23.831738 -0.088935 -74.003548
v -23.831738 13.747470 -74.003548
v -9.995334 -0.088935 -60.167141
v -9.995334 13.747470 -60.167141
v -9.995334 -0.088935 -74.003548
v -9.995334 13.747470 -74.003548
vt 0.375000 0.000000
vt 0.625000 0.000000
vt 0.625000 0.250000
vt 0.375000 0.250000
vt 0.625000 0.500000
vt 0.375000 0.500000
vt 0.625000 0.750000
vt 0.375000 0.750000
vt 0.625000 1.000000
vt 0.375000 1.000000
vt 0.125000 0.500000
vt 0.125000 0.750000
vt 0.875000 0.500000
vt 0.875000 0.750000
vn -0.5773 -0.5773 0.5773
vn -0.5773 0.5773 0.5773
vn -0.5773 0.5773 -0.5773
vn -0.5773 -0.5773 -0.5773
vn 0.5773 0.5773 -0.5773
vn 0.5773 -0.5773 -0.5773
vn 0.5773 0.5773 0.5773
vn 0.5773 -0.5773 0.5773
usemtl None
s 1
f 81/1/35 82/2/36 84/3/37 83/4/38
f 83/4/38 84/3/37 88/5/39 87/6/40
f 87/6/40 88/5/39 86/7/41 85/8/42
f 85/8/42 86/7/41 82/9/36 81/10/35
f 83/11/38 87/6/40 85/8/42 81/12/35
f 88/5/39 84/13/37 82/14/36 86/7/41
o Cube.001_Cube.002
v -35.243652 14.062660 -60.167141
v -35.243652 17.988430 -60.167141
v -35.243652 14.062660 -74.003548
v -35.243652 17.988430 -74.003548
v -21.407249 14.062660 -60.167141
v -21.407249 17.988430 -60.167141
v -21.407249 14.062660 -74.003548
v -21.407249 17.988430 -74.003548
vt 0.375000 0.000000
vt 0.625000 0.000000
vt 0.625000 0.250000
vt 0.375000 0.250000
vt 0.625000 0.500000
vt 0.375000 0.500000
vt 0.625000 0.750000
vt 0.375000 0.750000
vt 0.625000 1.000000
vt 0.375000 1.000000
vt 0.125000 0.500000
vt 0.125000 0.750000
vt 0.875000 0.500000
vt 0.875000 0.750000
vn -0.5773 -0.5773 0.5773
vn -0.5773 0.5773 0.5773
vn -0.5773 0.5773 -0.5773
vn -0.5773 -0.5773 -0.5773
vn 0.5773 0.5773 -0.5773
vn 0.5773 -0.5773 -0.5773
vn 0.5773 0.5773 0.5773
vn 0.5773 -0.5773 0.5773
usemtl None
s 1
f 89/15/43 90/16/44 92/17/45 91/18/46
f 91/18/46 92/17/45 96/19/47 95/20/48
f 95/20/48 96/19/47 94/21/49 93/22/50
f 93/22/50 94/21/49 90/23/44 89/24/43
f 91/25/46 95/20/48 93/22/50 89/26/43
f 96/19/47 92/27/45 90/28/44 94/21/49
o Cube.002_Cube.003
v -58.607349 18.596870 -49.214859
v -58.607349 26.882170 -49.214859
v -58.607349 18.596870 -76.625397
v -58.607349 25.133856 -76.625397
v -44.770947 18.596870 -49.214859
v -44.770947 26.882170 -49.214859
v -44.770947 18.596870 -76.625397
v -44.770947 25.133856 -76.625397
v -44.770947 22.826185 -76.625397
v -44.770947 18.596870 -62.920128
v -44.770947 25.522020 -62.920128
v -44.770947 22.826185 -49.214859
v -44.770947 22.826185 -62.920128
v -44.770947 22.826185 -76.625397
v -44.770947 18.596870 -76.625397
v -44.770947 18.596870 -62.920128
v -44.770947 22.826185 -62.920128
v -35.794907 22.826185 -76.625397
v -35.794907 18.596870 -76.625397
v -35.794907 18.596870 -62.920128
v -35.794907 22.826185 -62.920128
v -58.607349 26.882170 -62.920128
v -51.689148 25.133856 -76.625397
v -44.770947 26.882170 -56.067493
v -51.689148 26.882170 -49.214859
v -44.770947 25.133856 -69.772766
v -58.607349 26.198076 -67.197968
v -44.770947 24.960526 -67.186790
vt 0.375000 0.000000
vt 0.625000 0.000000
vt 0.625000 0.125000
vt 0.625000 0.164016
vt 0.625000 0.250000
vt 0.375000 0.250000
vt 0.625000 0.375000
vt 0.625000 0.500000
vt 0.500000 0.500000
vt 0.375000 0.500000
vt 0.500000 0.625000
vt 0.625000 0.625000
vt 0.625000 0.687500
vt 0.625000 0.750000
vt 0.500000 0.750000
vt 0.375000 0.750000
vt 0.625000 0.875000
vt 0.625000 1.000000
vt 0.375000 1.000000
vt 0.125000 0.500000
vt 0.375000 0.625000
vt 0.125000 0.750000
vt 0.750000 0.500000
vt 0.875000 0.500000
vt 0.625000 0.586086
vt 0.625000 0.562500
vt 0.375000 0.500000
vt 0.375000 0.625000
vt 0.500000 0.500000
vt 0.500000 0.625000
vt 0.500000 0.625000
vt 0.500000 0.500000
vt 0.375000 0.500000
vt 0.375000 0.625000
vt 0.875000 0.585984
vt 0.875000 0.625000
vt 0.875000 0.750000
vt 0.750000 0.750000
vn -0.5773 -0.5773 0.5773
vn -0.5759 0.5983 0.5571
vn -0.6925 0.7195 -0.0521
vn -0.6778 0.7321 -0.0677
vn -0.5734 0.5607 -0.5974
vn -0.5773 -0.5773 -0.5773
vn -0.0065 0.7135 -0.7006
vn 0.5774 0.5826 -0.5720
vn 1.0000 0.0000 0.0000
vn 0.0000 -0.7071 0.7071
vn 0.8320 0.0000 0.5547
vn 0.7350 0.6762 -0.0490
vn 0.7214 0.6907 -0.0501
vn 0.6073 0.5814 0.5413
vn 0.7071 0.0000 0.7071
vn 0.5773 -0.5773 0.5773
vn 0.0300 0.7316 0.6811
vn 0.3333 -0.6666 0.6666
vn 0.6984 0.7147 -0.0371
vn 0.7039 0.7102 0.0130
vn 0.0000 -0.3162 0.9487
vn 0.0000 0.7071 0.7071
vn 0.0000 0.3162 0.9487
vn 0.5773 0.5773 0.5773
vn 0.5773 0.5773 -0.5773
vn 0.5773 -0.5773 -0.5773
usemtl None
s 1
f 97/29/51 98/30/52 118/31/53 123/32/54 100/33/55 99/34/56
f 99/34/56 100/33/55 119/35/57 104/36/58 105/37/59 103/38/60
f 109/39/61 107/40/62 120/41/63 102/42/64 108/43/65
f 101/44/66 108/43/65 102/42/64 121/45/67 98/46/52 97/47/51
f 99/48/56 103/38/60 106/49/68 101/44/66 97/50/51
f 104/36/58 119/51/57 100/52/55 124/53/69 122/54/70
f 106/49/68 109/39/61 108/43/65 101/44/66
f 106/49/68 103/38/60 111/55/60 112/56/71
f 105/37/59 104/36/58 122/54/70 124/53/69 107/40/62 109/39/61
f 110/57/72 113/58/73 117/59/74 114/60/75
f 109/39/61 106/49/68 112/56/71 113/58/73
f 103/38/60 105/37/59 110/57/72 111/55/60
f 105/37/59 109/39/61 113/58/73 110/57/72
f 115/61/76 114/60/75 117/59/74 116/62/66
f 111/55/60 110/57/72 114/60/75 115/61/76
f 113/58/73 112/56/71 116/62/66 117/59/74
f 112/56/71 111/55/60 115/61/76 116/62/66
f 124/53/69 123/63/54 118/64/53 98/65/52 121/66/67 102/42/64 120/41/63 107/40/62
f 123/63/54 124/53/69 100/52/55
o Cube.003_Cube.004
v -54.107567 27.792875 -32.502712
v -54.107567 31.718645 -32.502712
v -54.107567 27.792875 -46.339115
v -54.107567 31.718645 -46.339115
v -27.628990 27.792875 -32.502712
v -27.628990 31.718645 -32.502712
v -27.628990 27.792875 -46.339115
v -27.628990 31.718645 -46.339115
vt 0.375000 0.000000
vt 0.625000 0.000000
vt 0.625000 0.250000
vt 0.375000 0.250000
vt 0.625000 0.500000
vt 0.375000 0.500000
vt 0.625000 0.750000
vt 0.375000 0.750000
vt 0.625000 1.000000
vt 0.375000 1.000000
vt 0.125000 0.500000
vt 0.125000 0.750000
vt 0.875000 0.500000
vt 0.875000 0.750000
vn -0.5773 -0.5773 0.5773
vn -0.5773 0.5773 0.5773
vn -0.5773 0.5773 -0.5773
vn -0.5773 -0.5773 -0.5773
vn 0.5773 0.5773 -0.5773
vn 0.5773 -0.5773 -0.5773
vn 0.5773 0.5773 0.5773
vn 0.5773 -0.5773 0.5773
usemtl None
s 1
f 125/67/77 126/68/78 128/69/79 127/70/80
f 127/70/80 128/69/79 132/71/81 131/72/82
f 131/72/82 132/71/81 130/73/83 129/74/84
f 129/74/84 130/73/83 126/75/78 125/76/77
f 127/77/80 131/72/82 129/74/84 125/78/77
f 132/71/81 128/79/79 126/80/78 130/73/83
o Cube.004_Cube.005
v -21.794624 34.167919 19.220383
v -21.794624 41.751347 19.220383
v -21.794624 34.167919 2.411824
v -21.794624 41.751347 2.411824
v 13.511727 34.167919 19.220383
v 13.511727 41.751347 19.220383
v 13.511727 34.167919 2.411824
v 13.511727 41.751347 2.411824
vt 0.375000 0.000000
vt 0.625000 0.000000
vt 0.625000 0.250000
vt 0.375000 0.250000
vt 0.625000 0.500000
vt 0.375000 0.500000
vt 0.625000 0.750000
vt 0.375000 0.750000
vt 0.625000 1.000000
vt 0.375000 1.000000
vt 0.125000 0.500000
vt 0.125000 0.750000
vt 0.875000 0.500000
vt 0.875000 0.750000
vn -0.5773 -0.5773 0.5773
vn -0.5773 0.5773 0.5773
vn -0.5773 0.5773 -0.5773
vn -0.5773 -0.5773 -0.5773
vn 0.5773 0.5773 -0.5773
vn 0.5773 -0.5773 -0.5773
vn 0.5773 0.5773 0.5773
vn 0.5773 -0.5773 0.5773
usemtl None
s 1
f 133/81/85 134/82/86 136/83/87 135/84/88
f 135/84/88 136/83/87 140/85/89 139/86/90
f 139/86/90 140/85/89 138/87/91 137/88/92
f 137/88/92 138/87/91 134/89/86 133/90/85
f 135/91/88 139/86/90 137/88/92 133/92/85
f 140/85/89 136/93/87 134/94/86 138/87/91
o win_obj_0.002
v 13.236843 63.420021 22.418234
v 13.101862 63.286461 25.707422
v 9.308537 62.805840 22.418325
v 8.959969 52.402489 22.418268
v 7.847795 55.505333 22.418291
v 9.354485 62.739449 25.707586
v 8.298235 52.400887 25.707529
v 4.767469 63.943321 22.418268
v -2.415084 63.284264 22.418413
v -0.080714 62.666588 22.418489
v -0.100551 62.598839 25.707605
v -2.425041 63.387436 25.707644
v 4.574368 64.324478 25.707571
v 2.161946 52.298058 22.418268
v 2.162635 52.459122 25.707529
v -4.639105 67.391243 22.418337
v -7.243212 66.054657 22.418016
v -7.838699 68.806129 22.418531
v -5.586283 69.241135 22.418272
v -7.276201 69.310310 25.707224
v 7.867464 55.466187 25.707544
v 5.334347 59.809357 25.707529
v 1.514879 55.493118 22.418261
v 1.518149 55.480499 25.707510
v -8.050684 67.097633 25.707556
v -6.063073 66.095207 25.707499
v -4.751157 62.828995 22.418375
v -7.952596 64.237083 22.418268
v -4.798055 62.775879 25.707586
v -15.199800 62.301994 22.418474
v -11.228947 63.173164 22.418230
v -11.682743 62.717354 25.707624
v -4.521248 68.132988 25.707479
v -7.952596 64.237083 25.707529
v -15.862682 64.196571 22.418364
v -3.415121 53.402359 22.418661
v -9.613437 53.434807 22.418348
v -8.168226 54.077477 25.707533
v -11.675458 54.198189 22.418421
v -11.414804 53.928680 25.707506
v -3.386994 53.549088 25.707949
v -15.425334 53.689987 25.707518
v -17.672390 62.377724 22.417978
v -18.029589 52.636925 25.707529
v -21.630920 53.569046 22.418261
v -21.493347 53.717987 25.707533
v -14.889642 60.988876 25.707582
v -20.378317 63.809090 22.417967
v -16.275942 62.819244 25.707537
v -17.900200 61.557030 25.707441
v -20.800829 62.408272 25.707518
v -18.451742 64.652466 25.707815
vn 0.2975 0.9531 -0.0556
vn 0.0960 -0.7841 -0.6131
vn -0.0101 0.1497 -0.9886
vn 0.6808 0.5414 -0.4933
vn 0.5813 0.5446 -0.6044
vn 0.0101 0.1517 -0.9884
vn -0.6258 0.5502 -0.5528
vn 0.7890 0.1131 0.6038
vn 0.7645 -0.2300 -0.6022
vn 0.3447 0.7188 -0.6037
vn -0.2798 -0.7474 -0.6026
vn -0.5575 0.5861 -0.5878
vn 0.1044 0.7795 -0.6176
vn 0.6237 0.4885 0.6102
vn -0.5486 0.5742 0.6077
vn -0.0996 -0.8878 0.4493
vn -0.0116 0.1464 0.9891
vn 0.0024 -0.7224 -0.6914
vn -0.0307 0.8471 0.5305
vn 0.0101 0.1536 0.9881
vn -0.0177 -0.3230 0.9462
vn 0.5797 0.5355 0.6141
vn -0.6153 0.5683 0.5463
vn 0.0053 -0.9307 0.3656
vn -0.6558 0.4443 -0.6103
vn -0.5779 0.5607 -0.5929
vn -0.0613 0.7857 0.6155
vn -0.1592 0.6893 -0.7067
vn -0.7459 -0.2817 0.6035
vn 0.1761 -0.7824 0.5973
vn -0.3330 0.7207 0.6081
vn 0.0684 -0.0585 0.9959
vn -0.4725 -0.4365 -0.7656
vn -0.5310 -0.5225 0.6671
vn 0.6289 0.4733 0.6168
vn -0.3778 0.6697 0.6393
vn -0.4325 0.7668 -0.4741
vn 0.6318 0.4781 -0.6101
vn -0.6868 -0.5238 -0.5039
vn 0.6200 -0.5808 -0.5275
vn 0.6030 -0.5234 0.6019
vn 0.5779 0.4884 0.6538
vn 0.5064 0.6250 -0.5940
vn -0.7071 0.2745 0.6517
vn -0.4258 0.6178 0.6611
vn 0.5877 -0.3525 0.7282
vn 0.8942 0.2672 0.3592
vn -0.0356 0.5219 -0.8523
vn 0.2665 -0.3471 -0.8992
vn -0.6399 -0.3820 0.6667
vn -0.8533 -0.3939 0.3415
vn 0.6882 -0.4684 0.5540
vn 0.4667 -0.3126 -0.8273
usemtl color_11909273
s off
f 184//93 185//93 186//93
s 1
f 144//94 145//95 141//96
f 150//97 163//98 149//99
f 173//100 156//101 159//102
f 159//102 156//101 157//103
f 143//104 141//96 145//95
f 144//94 148//105 145//95
f 142//106 146//107 147//108
f 146//107 161//109 147//108
f 154//110 149//99 163//98
f 148//105 154//110 163//98
f 153//111 164//112 162//113
f 161//109 153//111 162//113
f 147//108 161//109 162//113
f 151//114 152//115 164//112
f 155//116 164//112 152//115
f 158//117 159//102 157//103
f 188//118 192//119 175//120
f 165//121 157//103 166//122
f 165//121 166//122 160//123
f 160//123 159//102 158//117
f 189//124 175//120 170//125
f 178//126 169//127 174//128
f 162//113 164//112 155//116
f 168//129 167//130 177//131
f 167//130 176//132 177//131
f 169//127 178//126 181//133
f 175//120 189//124 172//134 171//135
f 191//136 186//137 190//138
f 184//139 190//138 186//137
f 184//139 185//140 183//141 190//138
f 146//107 145//95 161//109
f 172//134 189//124 187//142
f 175//120 183//141 188//118
f 192//119 190//138 189//124
f 189//124 170//125 187//142
f 192//119 191//136 190//138
f 183//141 170//125 189//124
f 175//120 170//125 183//141
f 153//111 161//109 145//95 148//105
f 152//115 151//114 150//97 149//99
f 187//142 182//143 180//144 172//134
f 187//142 170//125 171//135 179//145 180//144 182//143
f 163//98 150//97 151//114 164//112
f 146//107 142//106 141//96 143//104
f 183//141 189//124 190//138
f 185//140 188//118 183//141
f 176//132 181//133 178//126 177//131
f 176//132 167//130 169//127 181//133
f 192//119 189//124 175//120
f 146//107 143//104 145//95
f 172//134 180//144 179//145 171//135
f 159//102 160//123 173//100
f 171//135 170//125 175//120
f 177//131 178//126 174//128 168//129
f 152//115 149//99 154//110 155//116
f 156//101 173//100 166//122 157//103
f 158//117 157//103 165//121
f 191//136 188//118 185//140
f 142//106 147//108 144//94 141//96
f 165//121 160//123 158//117
f 166//122 173//100 160//123
f 191//136 192//119 188//118
f 162//113 155//116 154//110 148//105
f 148//105 144//94 147//108 162//113
f 163//98 164//112 153//111 148//105
f 174//128 169//127 167//130 168//129
f 186//137 191//136 185//140
